<?xml version="1.0" encoding="UTF-8"?>
<svg xmlns="http://www.w3.org/2000/svg" width="800" height="600" viewBox="0 0 800 600">
  <defs>
    <clipPath id="plotClip">
      <rect x="80" y="60" width="560" height="480"/>
    </clipPath>
  </defs>
  <rect x="0" y="0" width="800" height="600" fill="white"/>
  <rect x="80" y="60" width="560" height="480" fill="none" stroke="black" stroke-width="1"/>
  <line x1="80.0" y1="540" x2="80.0" y2="545" stroke="black" stroke-width="1"/>
  <text x="80.0" y="560" text-anchor="middle" font-family="SansSerif" font-size="12">0.00</text>
  <line x1="192.0" y1="540" x2="192.0" y2="545" stroke="black" stroke-width="1"/>
  <text x="192.0" y="560" text-anchor="middle" font-family="SansSerif" font-size="12">2.00</text>
  <line x1="304.0" y1="540" x2="304.0" y2="545" stroke="black" stroke-width="1"/>
  <text x="304.0" y="560" text-anchor="middle" font-family="SansSerif" font-size="12">4.00</text>
  <line x1="416.0" y1="540" x2="416.0" y2="545" stroke="black" stroke-width="1"/>
  <text x="416.0" y="560" text-anchor="middle" font-family="SansSerif" font-size="12">6.00</text>
  <line x1="528.0" y1="540" x2="528.0" y2="545" stroke="black" stroke-width="1"/>
  <text x="528.0" y="560" text-anchor="middle" font-family="SansSerif" font-size="12">8.00</text>
  <line x1="640.0" y1="540" x2="640.0" y2="545" stroke="black" stroke-width="1"/>
  <text x="640.0" y="560" text-anchor="middle" font-family="SansSerif" font-size="12">10.00</text>
  <line x1="75" y1="540.0" x2="80" y2="540.0" stroke="black" stroke-width="1"/>
  <text x="70" y="540.0" text-anchor="end" dominant-baseline="middle" font-family="SansSerif" font-size="12">-1.00</text>
  <line x1="75" y1="444.0" x2="80" y2="444.0" stroke="black" stroke-width="1"/>
  <text x="70" y="444.0" text-anchor="end" dominant-baseline="middle" font-family="SansSerif" font-size="12">-0.60</text>
  <line x1="75" y1="348.0" x2="80" y2="348.0" stroke="black" stroke-width="1"/>
  <text x="70" y="348.0" text-anchor="end" dominant-baseline="middle" font-family="SansSerif" font-size="12">-0.20</text>
  <line x1="75" y1="252.0" x2="80" y2="252.0" stroke="black" stroke-width="1"/>
  <text x="70" y="252.0" text-anchor="end" dominant-baseline="middle" font-family="SansSerif" font-size="12">0.20</text>
  <line x1="75" y1="156.00000000000006" x2="80" y2="156.00000000000006" stroke="black" stroke-width="1"/>
  <text x="70" y="156.00000000000006" text-anchor="end" dominant-baseline="middle" font-family="SansSerif" font-size="12">0.60</text>
  <line x1="75" y1="60.00000000000006" x2="80" y2="60.00000000000006" stroke="black" stroke-width="1"/>
  <text x="70" y="60.00000000000006" text-anchor="end" dominant-baseline="middle" font-family="SansSerif" font-size="12">1.00</text>
  <text x="360" y="580" text-anchor="middle" font-family="SansSerif" font-size="14" font-weight="bold">x</text>
  <text x="20" y="300" text-anchor="middle" font-family="SansSerif" font-size="14" font-weight="bold" transform="rotate(-90 20 300)">y ± error</text>
  <text x="360" y="30" text-anchor="middle" font-family="SansSerif" font-size="16" font-weight="bold">Error Regions - SVG Export</text>
  <path d="M 80.0 228.00644661197987 L 85.6 204.16541184052716 L 91.2 180.80239807614095 L 96.8 158.1508408295694 L 102.4 136.4370669732109 L 108.0 115.87803335781894 L 113.6 96.67915905136539 L 119.19999999999999 79.0322728596164 L 124.80000000000001 63.11369663611475 L 130.4 49.08248353250423 L 136.0 37.07882879201344 L 141.60000000000002 27.222668964928744 L 147.2 19.61248354222903 L 152.8 14.324310981065196 L 158.39999999999998 11.410988953630977 L 164.0 10.90162641060806 L 169.60000000000002 11.399681881408924 L 175.2 10.906293843016101 L 180.8 12.821908035749857 L 186.4 17.127384275814393 L 192.0 23.779703667820172 L 197.60000000000002 32.71239843536671 L 203.20000000000002 43.83621604509301 L 208.79999999999998 57.04001098848801 L 214.4 72.19185531107121 L 220.0 89.14035679290566 L 225.6 107.71617160961443 L 231.20000000000002 127.7336963598969 L 236.79999999999998 148.9929225533623 L 242.39999999999998 171.28143502925133 L 248.0 194.3765343385076 L 253.6 218.04746188305785 L 259.20000000000005 242.05770557944533 L 264.79999999999995 266.1673630093869 L 270.4 290.13553844543605 L 276.0 313.7227498014611 L 281.6 336.69332145848796 L 287.2 358.8177390575812 L 292.8 379.8749427314507 L 298.4 399.65453586157344 L 304.0 417.95888729165733 L 309.6 434.6051059928271 L 315.20000000000005 449.4268684503291 L 320.79999999999995 462.276080513111 L 326.40000000000003 473.02435710162666 L 332.0 481.56430498911106 L 337.59999999999997 487.8105958392042 L 343.2 491.7008187784812 L 348.8 488.9959916167489 L 354.40000000000003 483.32857379666746 L 360.0 475.3498709484593 L 365.6 465.1396036335753 L 371.2 452.7997894679599 L 376.8 438.453723795756 L 382.40000000000003 422.2447477629812 L 388.0 404.33481610018003 L 393.59999999999997 384.9028789242908 L 399.20000000000005 364.1430937282305 L 404.79999999999995 342.26288542340575 L 410.40000000000003 319.4808738185628 L 416.0 296.02468924292583 L 421.59999999999997 272.12869813919065 L 427.2 248.03166135150104 L 432.8 223.97434850601883 L 438.40000000000003 200.1971323204051 L 444.0 176.9375868790844 L 449.59999999999997 154.42811387152256 L 455.20000000000005 132.8936205113685 L 460.79999999999995 112.54927233792017 L 466.40000000000003 93.5983433531789 L 472.0 76.23018497521639 L 477.59999999999997 60.618334101394964 L 483.2 46.918779185054234 L 488.8 35.26840165044757 L 494.4 25.78360821879778 L 500.0 18.559167810818053 L 505.6 13.667264646982744 L 511.2 11.156777006656284 L 516.8 11.052788852484241 L 522.4000000000001 11.148152438215789 L 528.0 11.060142117028363 L 533.5999999999999 13.379596825869271 L 539.2 18.083341339997105 L 544.8000000000001 25.12437739907864 L 550.4000000000001 34.432353298268254 L 556.0 45.9142668191887 L 561.5999999999999 59.455394477355355 L 567.1999999999999 74.92043780130916 L 572.8000000000001 92.15487519022145 L 578.4000000000001 110.9865058426492 L 584.0 131.22717033002283 L 589.5999999999999 152.67463062345888 L 595.1999999999999 175.11459078929295 L 600.8000000000001 198.32283816321325 L 606.4 222.0674836090853 L 612.0 246.1112784785505 L 617.6 270.2139851210952 L 623.1999999999999 294.1347772592426 L 628.8000000000001 317.6346462451112 L 634.4 340.47878915581737 L 640.0 362.43895486666753 L 640.0 498.71961751734614 L 634.4 479.16528605163376 L 628.8000000000001 458.30050482645703 L 623.1999999999999 436.3337478388378 L 617.6 413.48449966335255 L 612.0 389.9810624348132 L 606.4 366.058274728804 L 600.8000000000001 341.95516513226096 L 595.1999999999999 317.91256394884374 L 589.5999999999999 294.17069690215044 L 584.0 270.96678487969336 L 578.4000000000001 248.53267370020757 L 572.8000000000001 227.09251758686696 L 567.1999999999999 206.8605394923826 L 561.5999999999999 188.03889065407247 L 556.0 170.81563076551845 L 550.4000000000001 155.3628489462743 L 544.8000000000001 141.83494428426758 L 539.2 130.3670831311498 L 533.5999999999999 121.07384856479251 L 528.0 114.04809551304783 L 522.4000000000001 109.36002297800326 L 516.8 109.64643219766867 L 511.2 114.52268866039844 L 505.6 121.73188366197985 L 500.0 131.201985309 L 494.4 142.83837147620142 L 488.8 156.5247752394793 L 483.2 172.12444657655442 L 477.59999999999997 189.4815187279927 L 472.0 208.42256556634186 L 466.40000000000003 228.75833441267105 L 460.79999999999995 250.2856369867793 L 455.20000000000005 272.789379597326 L 449.59999999999997 296.04471228689505 L 444.0 319.8192754584429 L 438.40000000000003 343.87552153558556 L 432.8 367.9730884594579 L 427.2 391.8712013069529 L 421.59999999999997 415.33107803416453 L 416.0 438.1183153076384 L 410.40000000000003 460.0052305849972 L 404.79999999999995 480.77313704364224 L 399.20000000000005 500.21452862719536 L 393.59999999999997 518.1351533774238 L 388.0 534.3559543355938 L 382.40000000000003 548.7148586204155 L 376.8 561.0683968066977 L 371.2 571.2931364244197 L 365.6 579.2869152551709 L 360.0 584.9698621032665 L 354.40000000000003 588.2851948423324 L 348.8 589.1997877635437 L 343.2 588.2991812215188 L 337.59999999999997 589.1978074828821 L 332.0 587.6865754025558 L 326.40000000000003 583.7805847119396 L 320.79999999999995 577.5188627788654 L 315.20000000000005 568.9639746590381 L 309.6 558.201397966681 L 304.0 545.3386688104697 L 298.4 530.5043073282798 L 292.8 513.8465335564533 L 287.2 495.53178646419065 L 281.6 475.74306095038685 L 276.0 454.6780794190932 L 270.4 432.5473162026131 L 264.79999999999995 409.571894571548 L 259.20000000000005 385.9813773441709 L 253.6 362.0114731706293 L 248.0 337.90168141002846 L 242.39999999999998 313.89289913200287 L 236.79999999999998 290.22501415282613 L 231.20000000000002 267.13450815564767 L 225.6 244.8520938436847 L 220.0 223.60040973515544 L 214.4 203.59179563279963 L 208.79999999999998 185.02617099475953 L 203.20000000000002 168.08903740543894 L 197.60000000000002 152.94962510499016 L 192.0 139.75920209669493 L 186.4 128.6495627270781 L 180.8 119.73171084036238 L 175.2 113.09475066474988 L 169.60000000000002 108.80499651242786 L 164.0 110.3008261590154 L 158.39999999999998 115.57340865175092 L 152.8 123.16843123650625 L 147.2 133.0100069581954 L 141.60000000000002 144.9998020453993 L 136.0 159.0180184289062 L 130.4 174.9245907244184 L 124.80000000000001 192.5605857195727 L 119.19999999999999 211.74979038206243 L 113.6 232.30047252200774 L 108.0 254.00729651661868 L 102.4 276.65337495586306 L 96.8 300.0124357097743 L 91.2 323.8510827647781 L 85.6 347.93112823951 L 80.0 372.0119722793912 Z" fill="rgba(31,119,180,0.23529411764705882)" clip-path="url(#plotClip)"/>
  <path d="M 80.0 300.00920944568554 L 85.6 276.04827004001856 L 91.2 252.32674042045954 L 96.8 229.08163826967177 L 102.4 206.54522096453695 L 108.0 184.9426649372188 L 113.6 164.48981578668656 L 119.19999999999999 145.39103162083944 L 124.80000000000001 127.8371411778437 L 130.4 112.00353712846123 L 136.0 98.04842361045985 L 141.60000000000002 86.11123550516396 L 147.2 76.31124525021221 L 152.8 68.74637110878581 L 158.39999999999998 63.49219880269095 L 164.0 60.60122628481179 L 169.60000000000002 60.102339196918365 L 175.2 62.000522253882934 L 180.8 66.27680943805615 L 186.4 72.8884735014463 L 192.0 81.76945288225761 L 197.60000000000002 92.83101177017846 L 203.20000000000002 105.96262672526598 L 208.79999999999998 121.03309099162368 L 214.4 137.89182547193548 L 220.0 156.37038326403052 L 225.6 176.28413272664955 L 231.20000000000002 197.43410225777228 L 236.79999999999998 219.60896835309416 L 242.39999999999998 242.58716708062707 L 248.0 266.13910787426806 L 253.6 290.02946752684363 L 259.20000000000005 314.0195414618081 L 264.79999999999995 337.86962879046746 L 270.4 361.3414273240246 L 276.0 384.2004146102771 L 281.6 406.2181912044374 L 287.2 427.17476276088587 L 292.8 446.860738143952 L 298.4 465.0794215949266 L 304.0 481.6487780510636 L 309.6 496.4032519797541 L 315.20000000000005 509.1954215546836 L 320.79999999999995 519.8974716459882 L 326.40000000000003 528.4024709067832 L 332.0 534.6254401958334 L 337.59999999999997 538.5042016610432 L 343.2 540.0 L 348.8 539.0978896901463 L 354.40000000000003 535.8068843194999 L 360.0 530.1598665258629 L 365.6 522.2132594443731 L 371.2 512.0464629461898 L 376.8 499.76106030122685 L 382.40000000000003 485.47980319169835 L 388.0 469.3453852178869 L 393.59999999999997 451.5190161508573 L 399.20000000000005 432.17881117771293 L 404.79999999999995 411.518011233524 L 410.40000000000003 389.7430522017801 L 416.0 367.0715022752821 L 421.59999999999997 343.7298880866776 L 427.2 319.951431329227 L 432.8 295.9737184827384 L 438.40000000000003 272.03632692799533 L 444.0 248.37843116876365 L 449.59999999999997 225.23641307920877 L 455.20000000000005 202.84150005434725 L 460.79999999999995 181.41745466234977 L 466.40000000000003 161.17833888292506 L 472.0 142.32637527077912 L 477.59999999999997 125.0499264146938 L 483.2 109.5216128808043 L 488.8 95.89658844496336 L 494.4 84.31098984749957 L 500.0 74.88057655990906 L 505.6 67.69957415448124 L 511.2 62.839732833527364 L 516.8 60.349610525076514 L 522.4000000000001 60.25408770810952 L 528.0 62.55411881503812 L 533.5999999999999 67.22672269533086 L 539.2 74.22521223557357 L 544.8000000000001 83.47966084167314 L 550.4000000000001 94.89760112227123 L 556.0 108.36494879235357 L 561.5999999999999 123.74714256571383 L 567.1999999999999 140.89048864684594 L 572.8000000000001 159.62369638854426 L 578.4000000000001 179.7595897714284 L 584.0 201.09697760485813 L 589.5999999999999 223.42266376280463 L 595.1999999999999 246.51357736906834 L 600.8000000000001 270.13900164773713 L 606.4 294.0628791689446 L 612.0 318.0461704566819 L 617.6 341.8492423922239 L 623.1999999999999 365.2342625490401 L 628.8000000000001 387.96757553578414 L 634.4 409.82203760372556 L 640.0 430.57928619200686" fill="none" stroke="rgb(31,119,180)" stroke-width="2.0" stroke-linecap="round" stroke-linejoin="round"/>
  <text x="660" y="80" font-family="SansSerif" font-size="12" fill="black">Legend</text>
  <line x1="660" y1="85" x2="690" y2="85" stroke="rgb(31,119,180)" stroke-width="2.0" stroke-linecap="round"/>
  <text x="700" y="92" font-family="SansSerif" font-size="12" fill="black">sin(x) with uncertainty</text>
</svg>
