<?xml version="1.0" encoding="UTF-8"?>
<svg xmlns="http://www.w3.org/2000/svg" width="800" height="600" viewBox="0 0 800 600">
  <defs>
    <clipPath id="plotClip">
      <rect x="80" y="60" width="560" height="480"/>
    </clipPath>
  </defs>
  <rect x="0" y="0" width="800" height="600" fill="white"/>
  <rect x="80" y="60" width="560" height="480" fill="none" stroke="black" stroke-width="1"/>
  <line x1="80.0" y1="540" x2="80.0" y2="545" stroke="black" stroke-width="1"/>
  <text x="80.0" y="560" text-anchor="middle" font-family="SansSerif" font-size="12">0.00</text>
  <line x1="192.0" y1="540" x2="192.0" y2="545" stroke="black" stroke-width="1"/>
  <text x="192.0" y="560" text-anchor="middle" font-family="SansSerif" font-size="12">2.00</text>
  <line x1="304.0" y1="540" x2="304.0" y2="545" stroke="black" stroke-width="1"/>
  <text x="304.0" y="560" text-anchor="middle" font-family="SansSerif" font-size="12">4.00</text>
  <line x1="416.0" y1="540" x2="416.0" y2="545" stroke="black" stroke-width="1"/>
  <text x="416.0" y="560" text-anchor="middle" font-family="SansSerif" font-size="12">6.00</text>
  <line x1="528.0" y1="540" x2="528.0" y2="545" stroke="black" stroke-width="1"/>
  <text x="528.0" y="560" text-anchor="middle" font-family="SansSerif" font-size="12">8.00</text>
  <line x1="640.0" y1="540" x2="640.0" y2="545" stroke="black" stroke-width="1"/>
  <text x="640.0" y="560" text-anchor="middle" font-family="SansSerif" font-size="12">10.00</text>
  <line x1="75" y1="540.0" x2="80" y2="540.0" stroke="black" stroke-width="1"/>
  <text x="70" y="540.0" text-anchor="end" dominant-baseline="middle" font-family="SansSerif" font-size="12">-1.00</text>
  <line x1="75" y1="444.0" x2="80" y2="444.0" stroke="black" stroke-width="1"/>
  <text x="70" y="444.0" text-anchor="end" dominant-baseline="middle" font-family="SansSerif" font-size="12">-0.60</text>
  <line x1="75" y1="348.0" x2="80" y2="348.0" stroke="black" stroke-width="1"/>
  <text x="70" y="348.0" text-anchor="end" dominant-baseline="middle" font-family="SansSerif" font-size="12">-0.20</text>
  <line x1="75" y1="252.0" x2="80" y2="252.0" stroke="black" stroke-width="1"/>
  <text x="70" y="252.0" text-anchor="end" dominant-baseline="middle" font-family="SansSerif" font-size="12">0.20</text>
  <line x1="75" y1="156.00000000000006" x2="80" y2="156.00000000000006" stroke="black" stroke-width="1"/>
  <text x="70" y="156.00000000000006" text-anchor="end" dominant-baseline="middle" font-family="SansSerif" font-size="12">0.60</text>
  <line x1="75" y1="60.00000000000006" x2="80" y2="60.00000000000006" stroke="black" stroke-width="1"/>
  <text x="70" y="60.00000000000006" text-anchor="end" dominant-baseline="middle" font-family="SansSerif" font-size="12">1.00</text>
  <text x="360" y="580" text-anchor="middle" font-family="SansSerif" font-size="14" font-weight="bold">Time (s)</text>
  <text x="20" y="300" text-anchor="middle" font-family="SansSerif" font-size="14" font-weight="bold" transform="rotate(-90 20 300)">Amplitude</text>
  <text x="360" y="30" text-anchor="middle" font-family="SansSerif" font-size="16" font-weight="bold">Multiple Series - SVG Export</text>
  <path d="M 80.0 300.00920944568554 L 85.6 276.04827004001856 L 91.2 252.32674042045954 L 96.8 229.08163826967177 L 102.4 206.54522096453695 L 108.0 184.9426649372188 L 113.6 164.48981578668656 L 119.19999999999999 145.39103162083944 L 124.80000000000001 127.8371411778437 L 130.4 112.00353712846123 L 136.0 98.04842361045985 L 141.60000000000002 86.11123550516396 L 147.2 76.31124525021221 L 152.8 68.74637110878581 L 158.39999999999998 63.49219880269095 L 164.0 60.60122628481179 L 169.60000000000002 60.102339196918365 L 175.2 62.000522253882934 L 180.8 66.27680943805615 L 186.4 72.8884735014463 L 192.0 81.76945288225761 L 197.60000000000002 92.83101177017846 L 203.20000000000002 105.96262672526598 L 208.79999999999998 121.03309099162368 L 214.4 137.89182547193548 L 220.0 156.37038326403052 L 225.6 176.28413272664955 L 231.20000000000002 197.43410225777228 L 236.79999999999998 219.60896835309416 L 242.39999999999998 242.58716708062707 L 248.0 266.13910787426806 L 253.6 290.02946752684363 L 259.20000000000005 314.0195414618081 L 264.79999999999995 337.86962879046746 L 270.4 361.3414273240246 L 276.0 384.2004146102771 L 281.6 406.2181912044374 L 287.2 427.17476276088587 L 292.8 446.860738143952 L 298.4 465.0794215949266 L 304.0 481.6487780510636 L 309.6 496.4032519797541 L 315.20000000000005 509.1954215546836 L 320.79999999999995 519.8974716459882 L 326.40000000000003 528.4024709067832 L 332.0 534.6254401958334 L 337.59999999999997 538.5042016610432 L 343.2 540.0 L 348.8 539.0978896901463 L 354.40000000000003 535.8068843194999 L 360.0 530.1598665258629 L 365.6 522.2132594443731 L 371.2 512.0464629461898 L 376.8 499.76106030122685 L 382.40000000000003 485.47980319169835 L 388.0 469.3453852178869 L 393.59999999999997 451.5190161508573 L 399.20000000000005 432.17881117771293 L 404.79999999999995 411.518011233524 L 410.40000000000003 389.7430522017801 L 416.0 367.0715022752821 L 421.59999999999997 343.7298880866776 L 427.2 319.951431329227 L 432.8 295.9737184827384 L 438.40000000000003 272.03632692799533 L 444.0 248.37843116876365 L 449.59999999999997 225.23641307920877 L 455.20000000000005 202.84150005434725 L 460.79999999999995 181.41745466234977 L 466.40000000000003 161.17833888292506 L 472.0 142.32637527077912 L 477.59999999999997 125.0499264146938 L 483.2 109.5216128808043 L 488.8 95.89658844496336 L 494.4 84.31098984749957 L 500.0 74.88057655990906 L 505.6 67.69957415448124 L 511.2 62.839732833527364 L 516.8 60.349610525076514 L 522.4000000000001 60.25408770810952 L 528.0 62.55411881503812 L 533.5999999999999 67.22672269533086 L 539.2 74.22521223557357 L 544.8000000000001 83.47966084167314 L 550.4000000000001 94.89760112227123 L 556.0 108.36494879235357 L 561.5999999999999 123.74714256571383 L 567.1999999999999 140.89048864684594 L 572.8000000000001 159.62369638854426 L 578.4000000000001 179.7595897714284 L 584.0 201.09697760485813 L 589.5999999999999 223.42266376280463 L 595.1999999999999 246.51357736906834 L 600.8000000000001 270.13900164773713 L 606.4 294.0628791689446 L 612.0 318.0461704566819 L 617.6 341.8492423922239 L 623.1999999999999 365.2342625490401 L 628.8000000000001 387.96757553578414 L 634.4 409.82203760372556 L 640.0 430.57928619200686" fill="none" stroke="rgb(31,119,180)" stroke-width="2.0" stroke-linecap="round" stroke-linejoin="round"/>
  <path d="M 80.0 60.0 L 85.6 61.19904634214231 L 91.2 64.78420489387071 L 96.8 70.7196539360321 L 102.4 78.94608842379574 L 108.0 89.38131254305773 L 113.6 101.92106098384488 L 119.19999999999999 116.44004072482653 L 124.80000000000001 132.79318291976733 L 130.4 150.81709237748572 L 136.0 170.3316801525923 L 141.60000000000002 191.14196293470354 L 147.2 213.04001125722527 L 152.8 235.8070270598514 L 158.39999999999998 259.2155298464569 L 164.0 283.03162959502015 L 169.60000000000002 307.01736370940955 L 175.2 330.9330746629836 L 180.8 354.53980457737714 L 186.4 377.60168281063306 L 192.0 399.8882826986881 L 197.60000000000002 421.1769239024312 L 203.20000000000002 441.2548973560438 L 208.79999999999998 459.9215905856729 L 214.4 476.99049216295657 L 220.0 492.29105526556333 L 225.6 505.6704017246656 L 231.20000000000002 516.994849533068 L 236.79999999999998 526.1512485516336 L 242.39999999999998 533.0481110680721 L 248.0 537.616525911919 L 253.6 539.8108469921716 L 259.20000000000005 539.6091493779421 L 264.79999999999995 537.0134483651196 L 270.4 532.0496793401996 L 276.0 524.7674386424751 L 281.6 515.2394880138091 L 287.2 503.5610275873614 L 292.8 489.84874467932747 L 298.4 474.2396478878461 L 304.0 456.88969814837645 L 309.6 437.9722504235845 L 315.20000000000005 417.6763215978593 L 320.79999999999995 396.2047018830857 L 326.40000000000003 373.7719286058797 L 332.0 350.6021426215383 L 337.59999999999997 326.92684877270403 L 343.2 302.9826027695026 L 348.8 279.00864760308286 L 354.40000000000003 255.24452310873147 L 360.0 231.9276725630212 L 365.6 209.2910702290784 L 371.2 187.56089355475797 L 376.8 166.9542632823484 L 382.40000000000003 147.67707404988522 L 388.0 129.9219371599878 L 393.59999999999997 113.866256071392 L 399.20000000000005 99.67045384223223 L 404.79999999999995 87.47637023587424 L 410.40000000000003 77.40584450488444 L 416.0 69.55949801349391 L 421.59999999999997 64.01572886218713 L 427.2 60.82992855979745 L 432.8 60.03392856986085 L 438.40000000000003 61.63568226115427 L 444.0 65.6191854402636 L 449.59999999999997 71.94463626019416 L 455.20000000000005 80.54883290726946 L 460.79999999999995 91.345805092761 L 466.40000000000003 104.22767303959591 L 472.0 119.06572538142888 L 477.59999999999997 135.71170520406815 L 483.2 153.99929137955553 L 488.8 173.7457603918976 L 494.4 194.75381205003805 L 500.0 216.81354084614702 L 505.6 239.70453326207098 L 511.2 263.19807006834606 L 516.8 287.05941161113446 L 522.4000000000001 311.0501432532519 L 528.0 334.9305575344114 L 533.5999999999999 358.4620492489313 L 539.2 381.40949951007707 L 544.8000000000001 403.5436249802583 L 550.4000000000001 424.6432687943453 L 556.0 444.49761028596305 L 561.5999999999999 462.9082714379 L 567.1999999999999 479.69129900968153 L 572.8000000000001 494.6790025375419 L 578.4000000000001 507.7216298421063 L 584.0 518.6888633026673 L 589.5999999999999 527.4711219477723 L 595.1999999999999 533.9806563520681 L 600.8000000000001 538.152425399553 L 606.4 539.9447461529079 L 612.0 539.339710335628 L 617.6 536.3433632656012 L 623.1999999999999 530.9856434522904 L 628.8000000000001 523.3200834610437 L 634.4 513.4232750333963 L 640.0 501.39410380770744" fill="none" stroke="rgb(255,127,14)" stroke-width="2.0" stroke-linecap="round" stroke-linejoin="round"/>
  <path d="M 80.0 300.00920944568554 L 85.6 276.1679749330725 L 91.2 253.27721520511125 L 96.8 232.24951261618605 L 102.4 213.92317531176468 L 108.0 199.02881652807275 L 113.6 188.16022734794888 L 119.19999999999999 181.75070412418825 L 124.80000000000001 180.05577432130195 L 130.4 183.14300944187084 L 136.0 190.88933116397163 L 141.60000000000002 202.98591808547576 L 147.2 218.9505174588105 L 152.8 238.14667108616754 L 158.39999999999998 259.80908889938985 L 164.0 283.0741586599768 L 169.60000000000002 307.0143754537468 L 175.2 330.6753183848551 L 180.8 353.1137003250615 L 186.4 373.43497379481875 L 192.0 390.8289937483745 L 197.60000000000002 404.60231550018455 L 203.20000000000002 414.20584017623435 L 208.79999999999998 419.2567055533643 L 214.4 419.55354956791587 L 220.0 415.0845379857742 L 225.6 406.02783619593765 L 231.20000000000002 392.74450631869195 L 236.79999999999998 375.7641127982714 L 242.39999999999998 355.7636103396048 L 248.0 333.5403558604838 L 253.6 309.98032038745623 L 259.20000000000005 286.0227681868405 L 264.79999999999995 262.6228112624472 L 270.4 240.71333205401766 L 276.0 221.1677923582323 L 281.6 204.76541116324495 L 287.2 192.16009964659258 L 292.8 183.85439180008342 L 298.4 180.17940998538103 L 304.0 181.28166413036178 L 309.6 187.11721084062953 L 315.20000000000005 197.45340528397838 L 320.79999999999995 211.87817600569974 L 326.40000000000003 229.81645291711493 L 332.0 250.55309352527183 L 337.59999999999997 273.26139340737694 L 343.2 297.0360443073151 L 348.8 320.92922591895467 L 354.40000000000003 343.9883924907348 L 360.0 365.2942478188462 L 365.6 383.99739468587165 L 371.2 399.35219764741606 L 376.8 410.746509164285 L 382.40000000000003 417.7260739931304 L 388.0 420.0126389095166 L 393.59999999999997 417.51504578590016 L 399.20000000000005 410.3328657785088 L 404.79999999999995 398.75242973955756 L 410.40000000000003 383.23541310974014 L 416.0 364.40043037531007 L 421.59999999999997 342.99837286066384 L 427.2 319.88247306081223 L 432.8 295.9742889543355 L 438.40000000000003 272.22696439492086 L 444.0 249.58723027373634 L 449.59999999999997 228.95766134638103 L 455.20000000000005 211.16069342561906 L 460.79999999999995 196.90583546087151 L 466.40000000000003 186.76138365538725 L 472.0 181.13176528998213 L 477.59999999999997 180.2414154835967 L 483.2 184.12582967335027 L 488.8 192.63014852347516 L 494.4 205.41533167834706 L 500.0 221.97167423155963 L 505.6 241.63912705207633 L 511.2 263.63361086017994 L 516.8 287.0782749940481 L 522.4000000000001 311.03845467858 L 528.0 334.5589331604722 L 533.5999999999999 356.7020231858137 L 539.2 376.5849496318556 L 544.8000000000001 393.4150429653971 L 550.4000000000001 406.5213404756601 L 556.0 415.38133544022423 L 561.5999999999999 419.64180781918316 L 567.1999999999999 419.1329060234859 L 572.8000000000001 413.8749183617942 L 578.4000000000001 404.0774642096405 L 584.0 390.13113714641656 L 589.5999999999999 372.591933221953 L 595.1999999999999 352.1590851485598 L 600.8000000000001 329.64718609934187 L 606.4 305.9537144489867 L 612.0 282.0232541431203 L 617.6 258.8098371172031 L 623.1999999999999 237.2389090538848 L 628.8000000000001 218.17043478405003 L 634.4 202.36461420278727 L 640.0 190.45157549852001" fill="none" stroke="rgb(44,160,44)" stroke-width="2.0" stroke-linecap="round" stroke-linejoin="round"/>
  <text x="660" y="80" font-family="SansSerif" font-size="12" fill="black">Legend</text>
  <line x1="660" y1="85" x2="690" y2="85" stroke="rgb(31,119,180)" stroke-width="2.0" stroke-linecap="round"/>
  <text x="700" y="92" font-family="SansSerif" font-size="12" fill="black">sin(x)</text>
  <line x1="660" y1="105" x2="690" y2="105" stroke="rgb(255,127,14)" stroke-width="2.0" stroke-linecap="round"/>
  <text x="700" y="112" font-family="SansSerif" font-size="12" fill="black">cos(x)</text>
  <line x1="660" y1="125" x2="690" y2="125" stroke="rgb(44,160,44)" stroke-width="2.0" stroke-linecap="round"/>
  <text x="700" y="132" font-family="SansSerif" font-size="12" fill="black">sin(2x)/2</text>
</svg>
