<?xml version="1.0" encoding="UTF-8"?>
<svg xmlns="http://www.w3.org/2000/svg" width="800" height="600" viewBox="0 0 800 600">
  <defs>
    <clipPath id="plotClip">
      <rect x="60" y="40" width="620" height="510"/>
    </clipPath>
  </defs>
  <rect x="0" y="0" width="800" height="600" fill="rgb(255,255,255)"/>
  <rect x="60" y="40" width="620" height="510" fill="none" stroke="rgb(0,0,0)" stroke-width="1"/>
  <line x1="60.0" y1="550" x2="60.0" y2="555" stroke="rgb(0,0,0)" stroke-width="1"/>
  <text x="60.0" y="570" text-anchor="middle" font-family="SansSerif" font-size="12" fill="rgb(0,0,0)">0</text>
  <line x1="184.0" y1="550" x2="184.0" y2="555" stroke="rgb(0,0,0)" stroke-width="1"/>
  <text x="184.0" y="570" text-anchor="middle" font-family="SansSerif" font-size="12" fill="rgb(0,0,0)">20</text>
  <line x1="308.0" y1="550" x2="308.0" y2="555" stroke="rgb(0,0,0)" stroke-width="1"/>
  <text x="308.0" y="570" text-anchor="middle" font-family="SansSerif" font-size="12" fill="rgb(0,0,0)">40</text>
  <line x1="432.0" y1="550" x2="432.0" y2="555" stroke="rgb(0,0,0)" stroke-width="1"/>
  <text x="432.0" y="570" text-anchor="middle" font-family="SansSerif" font-size="12" fill="rgb(0,0,0)">60</text>
  <line x1="556.0" y1="550" x2="556.0" y2="555" stroke="rgb(0,0,0)" stroke-width="1"/>
  <text x="556.0" y="570" text-anchor="middle" font-family="SansSerif" font-size="12" fill="rgb(0,0,0)">80</text>
  <line x1="680.0" y1="550" x2="680.0" y2="555" stroke="rgb(0,0,0)" stroke-width="1"/>
  <text x="680.0" y="570" text-anchor="middle" font-family="SansSerif" font-size="12" fill="rgb(0,0,0)">100</text>
  <line x1="55" y1="550.0" x2="60" y2="550.0" stroke="rgb(0,0,0)" stroke-width="1"/>
  <text x="50" y="550.0" text-anchor="end" dominant-baseline="middle" font-family="SansSerif" font-size="12" fill="rgb(0,0,0)">0</text>
  <line x1="55" y1="422.5" x2="60" y2="422.5" stroke="rgb(0,0,0)" stroke-width="1"/>
  <text x="50" y="422.5" text-anchor="end" dominant-baseline="middle" font-family="SansSerif" font-size="12" fill="rgb(0,0,0)">50</text>
  <line x1="55" y1="295.0" x2="60" y2="295.0" stroke="rgb(0,0,0)" stroke-width="1"/>
  <text x="50" y="295.0" text-anchor="end" dominant-baseline="middle" font-family="SansSerif" font-size="12" fill="rgb(0,0,0)">100</text>
  <line x1="55" y1="167.5" x2="60" y2="167.5" stroke="rgb(0,0,0)" stroke-width="1"/>
  <text x="50" y="167.5" text-anchor="end" dominant-baseline="middle" font-family="SansSerif" font-size="12" fill="rgb(0,0,0)">150</text>
  <line x1="55" y1="40.0" x2="60" y2="40.0" stroke="rgb(0,0,0)" stroke-width="1"/>
  <text x="50" y="40.0" text-anchor="end" dominant-baseline="middle" font-family="SansSerif" font-size="12" fill="rgb(0,0,0)">200</text>
  <text x="370" y="580" text-anchor="middle" font-family="SansSerif" font-size="14" font-weight="bold" fill="rgb(0,0,0)">X Values</text>
  <text x="20" y="300" text-anchor="middle" font-family="SansSerif" font-size="14" font-weight="bold" fill="rgb(0,0,0)" transform="rotate(-90 20 300)">Y Values</text>
  <text x="370" y="30" text-anchor="middle" font-family="SansSerif" font-size="16" font-weight="bold" fill="rgb(0,0,0)">Minimal Theme Example</text>
  <path d="M 60.0 550.0 L 72.4 544.9 L 84.8 539.8 L 97.19999999999999 534.7 L 109.6 529.6 L 122.0 524.5 L 134.39999999999998 519.4 L 146.8 514.3 L 159.2 509.2 L 171.6 504.1 L 184.0 499.0 L 196.4 493.9 L 208.79999999999998 488.8 L 221.20000000000002 483.7 L 233.60000000000002 478.6 L 246.0 473.5 L 258.4 468.4 L 270.8 463.3 L 283.2 458.2 L 295.6 453.1 L 308.0 448.0 L 320.4 442.9 L 332.8 437.8 L 345.2 432.7 L 357.59999999999997 427.6 L 370.0 422.5 L 382.40000000000003 417.4 L 394.8 412.29999999999995 L 407.20000000000005 407.2 L 419.59999999999997 402.1 L 432.0 397.0 L 444.4 391.9 L 456.8 386.79999999999995 L 469.20000000000005 381.7 L 481.6 376.6 L 494.0 371.5 L 506.4 366.4 L 518.8 361.3 L 531.2 356.2 L 543.6 351.1 L 556.0 346.0 L 568.4 340.9 L 580.8 335.8 L 593.2 330.70000000000005 L 605.6 325.6 L 618.0 320.5 L 630.4 315.4 L 642.8 310.3 L 655.1999999999999 305.20000000000005 L 667.6 300.1 L 680.0 295.0" fill="none" stroke="rgb(31,119,180)" stroke-width="2.0" stroke-linecap="round" stroke-linejoin="round"/>
  <path d="M 60.0 550.0 L 72.4 542.35 L 84.8 534.7 L 97.19999999999999 527.05 L 109.6 519.4 L 122.0 511.75 L 134.39999999999998 504.1 L 146.8 496.45 L 159.2 488.8 L 171.6 481.15 L 184.0 473.5 L 196.4 465.85 L 208.79999999999998 458.2 L 221.20000000000002 450.55 L 233.60000000000002 442.9 L 246.0 435.25 L 258.4 427.6 L 270.8 419.95 L 283.2 412.29999999999995 L 295.6 404.65 L 308.0 397.0 L 320.4 389.35 L 332.8 381.7 L 345.2 374.05 L 357.59999999999997 366.4 L 370.0 358.75 L 382.40000000000003 351.1 L 394.8 343.45 L 407.20000000000005 335.8 L 419.59999999999997 328.15 L 432.0 320.5 L 444.4 312.85 L 456.8 305.20000000000005 L 469.20000000000005 297.55 L 481.6 289.9 L 494.0 282.25 L 506.4 274.59999999999997 L 518.8 266.95 L 531.2 259.3 L 543.6 251.65000000000003 L 556.0 244.0 L 568.4 236.35000000000002 L 580.8 228.7 L 593.2 221.05 L 605.6 213.39999999999998 L 618.0 205.75 L 630.4 198.10000000000002 L 642.8 190.45000000000005 L 655.1999999999999 182.8 L 667.6 175.15000000000003 L 680.0 167.5" fill="none" stroke="rgb(255,127,14)" stroke-width="2.0" stroke-linecap="round" stroke-linejoin="round"/>
  <path d="M 60.0 550.0 L 72.4 549.796 L 84.8 549.184 L 97.19999999999999 548.164 L 109.6 546.736 L 122.0 544.9 L 134.39999999999998 542.656 L 146.8 540.004 L 159.2 536.944 L 171.6 533.476 L 184.0 529.6 L 196.4 525.316 L 208.79999999999998 520.624 L 221.20000000000002 515.524 L 233.60000000000002 510.016 L 246.0 504.1 L 258.4 497.776 L 270.8 491.044 L 283.2 483.904 L 295.6 476.356 L 308.0 468.4 L 320.4 460.036 L 332.8 451.264 L 345.2 442.084 L 357.59999999999997 432.496 L 370.0 422.5 L 382.40000000000003 412.096 L 394.8 401.284 L 407.20000000000005 390.06399999999996 L 419.59999999999997 378.436 L 432.0 366.4 L 444.4 353.956 L 456.8 341.104 L 469.20000000000005 327.84399999999994 L 481.6 314.176 L 494.0 300.1 L 506.4 285.616 L 518.8 270.724 L 531.2 255.42399999999998 L 543.6 239.71599999999995 L 556.0 223.59999999999997 L 568.4 207.07600000000002 L 580.8 190.144 L 593.2 172.80400000000003 L 605.6 155.05600000000004 L 618.0 136.89999999999998 L 630.4 118.33599999999996 L 642.8 99.36400000000003 L 655.1999999999999 79.98400000000004 L 667.6 60.19599999999997 L 680.0 40.0" fill="none" stroke="rgb(44,160,44)" stroke-width="2.0" stroke-linecap="round" stroke-linejoin="round"/>
  <text x="700" y="60" font-family="SansSerif" font-size="12" fill="rgb(0,0,0)">Legend</text>
  <line x1="700" y1="65" x2="730" y2="65" stroke="rgb(31,119,180)" stroke-width="2.0" stroke-linecap="round"/>
  <text x="740" y="72" font-family="SansSerif" font-size="12" fill="rgb(0,0,0)">Linear</text>
  <line x1="700" y1="85" x2="730" y2="85" stroke="rgb(255,127,14)" stroke-width="2.0" stroke-linecap="round"/>
  <text x="740" y="92" font-family="SansSerif" font-size="12" fill="rgb(0,0,0)">Linear ×1.5</text>
  <line x1="700" y1="105" x2="730" y2="105" stroke="rgb(44,160,44)" stroke-width="2.0" stroke-linecap="round"/>
  <text x="740" y="112" font-family="SansSerif" font-size="12" fill="rgb(0,0,0)">Quadratic</text>
</svg>
