<?xml version="1.0" encoding="UTF-8"?>
<svg xmlns="http://www.w3.org/2000/svg" width="800" height="600" viewBox="0 0 800 600">
  <defs>
    <clipPath id="plotClip">
      <rect x="80" y="60" width="560" height="480"/>
    </clipPath>
  </defs>
  <rect x="0" y="0" width="800" height="600" fill="rgb(255,255,255)"/>
  <rect x="80" y="60" width="560" height="480" fill="none" stroke="rgb(0,0,0)" stroke-width="1"/>
  <line x1="80.0" y1="540" x2="80.0" y2="545" stroke="rgb(0,0,0)" stroke-width="1"/>
  <text x="80.0" y="560" text-anchor="middle" font-family="SansSerif" font-size="12" fill="rgb(0,0,0)">0</text>
  <line x1="220.0" y1="540" x2="220.0" y2="545" stroke="rgb(0,0,0)" stroke-width="1"/>
  <text x="220.0" y="560" text-anchor="middle" font-family="SansSerif" font-size="12" fill="rgb(0,0,0)">500</text>
  <line x1="360.0" y1="540" x2="360.0" y2="545" stroke="rgb(0,0,0)" stroke-width="1"/>
  <text x="360.0" y="560" text-anchor="middle" font-family="SansSerif" font-size="12" fill="rgb(0,0,0)">1000</text>
  <line x1="500.0" y1="540" x2="500.0" y2="545" stroke="rgb(0,0,0)" stroke-width="1"/>
  <text x="500.0" y="560" text-anchor="middle" font-family="SansSerif" font-size="12" fill="rgb(0,0,0)">1500</text>
  <line x1="640.0" y1="540" x2="640.0" y2="545" stroke="rgb(0,0,0)" stroke-width="1"/>
  <text x="640.0" y="560" text-anchor="middle" font-family="SansSerif" font-size="12" fill="rgb(0,0,0)">2000</text>
  <line x1="75" y1="540.0" x2="80" y2="540.0" stroke="rgb(0,0,0)" stroke-width="1"/>
  <text x="70" y="540.0" text-anchor="end" dominant-baseline="middle" font-family="SansSerif" font-size="12" fill="rgb(0,0,0)">0</text>
  <line x1="75" y1="420.0" x2="80" y2="420.0" stroke="rgb(0,0,0)" stroke-width="1"/>
  <text x="70" y="420.0" text-anchor="end" dominant-baseline="middle" font-family="SansSerif" font-size="12" fill="rgb(0,0,0)">1.00e+06</text>
  <line x1="75" y1="300.0" x2="80" y2="300.0" stroke="rgb(0,0,0)" stroke-width="1"/>
  <text x="70" y="300.0" text-anchor="end" dominant-baseline="middle" font-family="SansSerif" font-size="12" fill="rgb(0,0,0)">2.00e+06</text>
  <line x1="75" y1="180.0" x2="80" y2="180.0" stroke="rgb(0,0,0)" stroke-width="1"/>
  <text x="70" y="180.0" text-anchor="end" dominant-baseline="middle" font-family="SansSerif" font-size="12" fill="rgb(0,0,0)">3.00e+06</text>
  <line x1="75" y1="60.0" x2="80" y2="60.0" stroke="rgb(0,0,0)" stroke-width="1"/>
  <text x="70" y="60.0" text-anchor="end" dominant-baseline="middle" font-family="SansSerif" font-size="12" fill="rgb(0,0,0)">4.00e+06</text>
  <text x="360" y="580" text-anchor="middle" font-family="SansSerif" font-size="14" font-weight="bold" fill="rgb(0,0,0)">X (thousands)</text>
  <text x="20" y="300" text-anchor="middle" font-family="SansSerif" font-size="14" font-weight="bold" fill="rgb(0,0,0)" transform="rotate(-90 20 300)">Y (millions)</text>
  <text x="360" y="30" text-anchor="middle" font-family="SansSerif" font-size="16" font-weight="bold" fill="rgb(0,0,0)">Large Number Formatting</text>
  <path d="M 80.0 540.0 L 108.0 538.8 L 136.0 535.2 L 164.0 529.2 L 192.0 520.8 L 220.0 510.0 L 248.0 496.8 L 276.0 481.2 L 304.0 463.2 L 332.0 442.8 L 360.0 420.0 L 388.0 394.8 L 416.0 367.20000000000005 L 444.0 337.20000000000005 L 472.0 304.8 L 500.0 270.0 L 528.0 232.8 L 556.0 193.2 L 584.0 151.2 L 612.0 106.80000000000001 L 640.0 60.0" fill="none" stroke="rgb(31,119,180)" stroke-width="2.0" stroke-linecap="round" stroke-linejoin="round"/>
  <text x="660" y="80" font-family="SansSerif" font-size="12" fill="rgb(0,0,0)">Legend</text>
  <line x1="660" y1="85" x2="690" y2="85" stroke="rgb(31,119,180)" stroke-width="2.0" stroke-linecap="round"/>
  <text x="700" y="92" font-family="SansSerif" font-size="12" fill="rgb(0,0,0)">Growth</text>
</svg>
