<?xml version="1.0" encoding="UTF-8"?>
<svg xmlns="http://www.w3.org/2000/svg" width="800" height="600" viewBox="0 0 800 600">
  <defs>
    <clipPath id="plotClip">
      <rect x="80" y="60" width="560" height="480"/>
    </clipPath>
  </defs>
  <rect x="0" y="0" width="800" height="600" fill="rgb(255,255,255)"/>
  <rect x="80" y="60" width="560" height="480" fill="none" stroke="rgb(0,0,0)" stroke-width="1"/>
  <line x1="80.0" y1="540" x2="80.0" y2="545" stroke="rgb(0,0,0)" stroke-width="1"/>
  <text x="80.0" y="560" text-anchor="middle" font-family="SansSerif" font-size="12" fill="rgb(0,0,0)">0</text>
  <line x1="192.0" y1="540" x2="192.0" y2="545" stroke="rgb(0,0,0)" stroke-width="1"/>
  <text x="192.0" y="560" text-anchor="middle" font-family="SansSerif" font-size="12" fill="rgb(0,0,0)">2</text>
  <line x1="304.0" y1="540" x2="304.0" y2="545" stroke="rgb(0,0,0)" stroke-width="1"/>
  <text x="304.0" y="560" text-anchor="middle" font-family="SansSerif" font-size="12" fill="rgb(0,0,0)">4</text>
  <line x1="416.0" y1="540" x2="416.0" y2="545" stroke="rgb(0,0,0)" stroke-width="1"/>
  <text x="416.0" y="560" text-anchor="middle" font-family="SansSerif" font-size="12" fill="rgb(0,0,0)">6</text>
  <line x1="528.0" y1="540" x2="528.0" y2="545" stroke="rgb(0,0,0)" stroke-width="1"/>
  <text x="528.0" y="560" text-anchor="middle" font-family="SansSerif" font-size="12" fill="rgb(0,0,0)">8</text>
  <line x1="640.0" y1="540" x2="640.0" y2="545" stroke="rgb(0,0,0)" stroke-width="1"/>
  <text x="640.0" y="560" text-anchor="middle" font-family="SansSerif" font-size="12" fill="rgb(0,0,0)">10</text>
  <line x1="75" y1="449.2624994170582" x2="80" y2="449.2624994170582" stroke="rgb(0,0,0)" stroke-width="1"/>
  <text x="70" y="449.2624994170582" text-anchor="end" dominant-baseline="middle" font-family="SansSerif" font-size="12" fill="rgb(0,0,0)">-1</text>
  <line x1="75" y1="300.0181417562196" x2="80" y2="300.0181417562196" stroke="rgb(0,0,0)" stroke-width="1"/>
  <text x="70" y="300.0181417562196" text-anchor="end" dominant-baseline="middle" font-family="SansSerif" font-size="12" fill="rgb(0,0,0)">0</text>
  <line x1="75" y1="150.77378409538107" x2="80" y2="150.77378409538107" stroke="rgb(0,0,0)" stroke-width="1"/>
  <text x="70" y="150.77378409538107" text-anchor="end" dominant-baseline="middle" font-family="SansSerif" font-size="12" fill="rgb(0,0,0)">1</text>
  <text x="360" y="580" text-anchor="middle" font-family="SansSerif" font-size="14" font-weight="bold" fill="rgb(0,0,0)">x</text>
  <text x="20" y="300" text-anchor="middle" font-family="SansSerif" font-size="14" font-weight="bold" fill="rgb(0,0,0)" transform="rotate(-90 20 300)">y</text>
  <text x="360" y="30" text-anchor="middle" font-family="SansSerif" font-size="16" font-weight="bold" fill="rgb(0,0,0)">Random Waves (click ▶ to regenerate)</text>
  <path d="M 80.0 73.78946220797701 L 85.6 66.05673193574535 L 91.2 61.43974919784745 L 96.8 60.0 L 102.4 61.75665799574125 L 108.0 66.68632914404918 L 113.6 74.72336325612918 L 119.19999999999999 85.76072828239097 L 124.80000000000001 99.6514356964255 L 130.4 116.21049799363243 L 136.0 135.21739223579345 L 141.60000000000002 156.4189968336861 L 147.2 179.53296245756246 L 152.8 204.25147218386826 L 158.39999999999998 230.24534080299497 L 164.0 257.16839869611493 L 169.60000000000002 284.66210189945446 L 175.2 312.36030696212845 L 180.8 339.89414700905854 L 186.4 366.89694407269917 L 192.0 393.0090922743048 L 197.60000000000002 417.88284682366475 L 203.20000000000002 441.1869550604955 L 208.79999999999998 462.6110678642539 L 214.4 481.86987268405926 L 220.0 498.7068931476856 L 225.6 512.8979046488818 L 231.20000000000002 524.2539204264183 L 236.79999999999998 532.6237083681884 L 242.39999999999998 537.8958050231788 L 248.0 540.0 L 253.6 538.9082709837078 L 259.20000000000005 534.6351569189651 L 264.79999999999995 527.2375643897311 L 270.4 516.8140097739874 L 276.0 503.5033072659977 L 281.6 487.4827202381758 L 287.2 468.9656005615367 L 292.8 448.19854732274086 L 298.4 425.4581227761096 L 304.0 401.04716926545143 L 309.6 375.2907761645655 L 315.20000000000005 348.53195054610916 L 320.79999999999995 321.12704923408353 L 326.40000000000003 293.4410330729162 L 332.0 265.84260661373764 L 337.59999999999997 238.6993079443791 L 343.2 212.37261405357788 L 348.8 187.21312691300318 L 354.40000000000003 163.55590438575877 L 360.0 141.71599814132782 L 365.6 121.9842580001287 L 371.2 104.62345858272897 L 376.8 89.86479984650788 L 382.40000000000003 77.9048281133683 L 388.0 68.90281859227241 L 393.59999999999997 62.97865425447998 L 399.20000000000005 60.21122930926521 L 404.79999999999995 60.637398541595076 L 410.40000000000003 64.25148650381408 L 416.0 71.00536309760486 L 421.59999999999997 80.80908453967209 L 427.2 93.53209117518304 L 432.8 109.0049461872527 L 438.40000000000003 127.02159204746226 L 444.0 147.3420946574534 L 449.59999999999997 169.69583863688564 L 455.20000000000005 193.78513120496928 L 460.79999999999995 219.2891666613948 L 466.40000000000003 245.8682986702559 L 472.0 273.16856345143634 L 477.59999999999997 300.8263936425078 L 483.2 328.47346005495535 L 488.8 355.7415768453435 L 494.4 382.2676047775017 L 500.0 407.69828727724183 L 505.6 431.6949548761435 L 511.2 453.9380353936451 L 516.8 474.1313097937455 L 522.4000000000001 492.00585703955085 L 528.0 507.3236354106283 L 533.5999999999999 519.8806525894938 L 539.2 529.5096823000546 L 544.8000000000001 536.0824913195682 L 550.4000000000001 539.5115472062018 L 556.0 539.7511839997784 L 561.5999999999999 536.7982103716539 L 567.1999999999999 530.6919521247795 L 572.8000000000001 521.5137284779585 L 578.4000000000001 509.3857691088077 L 584.0 494.46958637754904 L 589.5999999999999 476.9638244093068 L 595.1999999999999 457.1016136794484 L 600.8000000000001 435.1474663319018 L 606.4 411.39375357659867 L 612.0 386.1568120778013 L 617.6 359.77273118592495 L 623.1999999999999 332.5928771157988 L 628.8000000000001 304.97921367746846 L 634.4 277.29948187505215 L 640.0 249.9223025686323" fill="none" stroke="rgb(31,119,180)" stroke-width="2.0" stroke-linecap="round" stroke-linejoin="round"/>
  <path d="M 80.0 248.2618337748757 L 85.6 285.52312911947865 L 91.2 323.19304922702025 L 96.8 360.2096521344528 L 102.4 395.5294133573958 L 108.0 428.15664359095047 L 113.6 457.17155790262655 L 119.19999999999999 481.7562051267769 L 124.80000000000001 501.2175264923841 L 130.4 515.0068934450074 L 136.0 522.7355738777287 L 141.60000000000002 524.1856907669953 L 147.2 519.316364281588 L 152.8 508.26486421427177 L 158.39999999999998 491.34274024825805 L 164.0 469.0270391490326 L 169.60000000000002 441.9468564751853 L 175.2 410.86560192512457 L 180.8 376.6594782722206 L 186.4 340.2927805825776 L 192.0 302.79071204812755 L 197.60000000000002 265.210482776143 L 203.20000000000002 228.61150628093304 L 208.79999999999998 194.0255338599227 L 214.4 162.427568787391 L 220.0 134.70838027552765 L 225.6 111.64939205388498 L 231.20000000000002 93.90065347611375 L 236.79999999999998 81.96251416422263 L 242.39999999999998 76.1715187952326 L 248.0 76.69091966627082 L 253.6 83.50607449567002 L 259.20000000000005 96.42485919935058 L 264.79999999999995 115.08308400602431 L 270.4 138.95476022706043 L 276.0 167.36692825343852 L 281.6 199.518628767957 L 287.2 234.50348236067197 L 292.8 271.3352410120728 L 298.4 308.9755911294279 L 304.0 346.3634243488409 L 309.6 382.444750938192 L 315.20000000000005 416.2024125207639 L 320.79999999999995 446.6847564966417 L 326.40000000000003 473.03246380946473 L 332.0 494.5027737646061 L 337.59999999999997 510.4904229838609 L 343.2 520.5447082125386 L 348.8 524.3821919662402 L 354.40000000000003 521.8946928360606 L 360.0 513.1523351998019 L 365.6 498.40157236565824 L 371.2 478.0582388773664 L 376.8 452.6958278413053 L 382.40000000000003 423.0293237460629 L 388.0 389.8950465388473 L 393.59999999999997 354.22707516862215 L 399.20000000000005 317.0309152331347 L 404.79999999999995 279.35515305768 L 410.40000000000003 242.2618952973741 L 416.0 206.79682739167117 L 421.59999999999997 173.95973494467762 L 427.2 144.67631905462758 L 432.8 119.77210013850805 L 438.40000000000003 99.94914592166703 L 444.0 85.76627964700873 L 449.59999999999997 77.62332644849556 L 455.20000000000005 75.74984199494617 L 460.79999999999995 80.19864115171384 L 466.40000000000003 90.84430909189547 L 472.0 107.38673682991077 L 477.59999999999997 129.35958150823518 L 483.2 156.14341293575563 L 488.8 186.9831757674404 L 494.4 221.00947505400728 L 500.0 257.2630851067237 L 505.6 294.72199075494296 L 511.2 332.3301986839971 L 516.8 369.0275066412422 L 522.4000000000001 403.7793912950807 L 528.0 435.6061721868456 L 533.5999999999999 463.61062962291396 L 539.2 487.00329793893457 L 544.8000000000001 505.12472110098213 L 550.4000000000001 517.4640432423325 L 556.0 523.6734100553568 L 561.5999999999999 523.5777750529938 L 567.1999999999999 517.1798342542913 L 572.8000000000001 504.65995018170304 L 578.4000000000001 486.37106731271257 L 584.0 462.82876232283087 L 589.5999999999999 434.696709610737 L 595.1999999999999 402.76797184277956 L 600.8000000000001 367.94264294976824 L 606.4 331.2024738359511 L 612.0 293.58319611955295 L 617.6 256.14532411843106 L 623.1999999999999 219.9442581937136 L 628.8000000000001 186.00053225953673 L 634.4 155.27104420283024 L 640.0 128.622080248178" fill="none" stroke="rgb(255,127,14)" stroke-width="2.0" stroke-linecap="round" stroke-linejoin="round"/>
  <path d="M 80.0 300.0181417562196 L 85.6 283.7729219156855 L 91.2 267.9332226097615 L 96.8 252.89195342921334 L 102.4 239.0172057111339 L 108.0 226.64083953583219 L 113.6 216.04823019686683 L 119.19999999999999 207.46950207876785 L 124.80000000000001 201.07253011550557 L 130.4 196.9579322459241 L 136.0 195.1562123533729 L 141.60000000000002 195.62714412922907 L 147.2 198.26141435191187 L 152.8 202.88447153552244 L 158.39999999999998 209.26245510547176 L 164.0 217.11001347654815 L 169.60000000000002 226.09975878697384 L 175.2 235.87305352736445 L 180.8 246.05178158292955 L 186.4 256.2507246528918 L 192.0 266.0901456363848 L 197.60000000000002 275.20817400114987 L 203.20000000000002 283.2725945910958 L 208.79999999999998 289.99166057403323 L 214.4 295.12358266312367 L 220.0 298.4843893547365 L 225.6 299.9539053423784 L 231.20000000000002 299.47965580694677 L 236.79999999999998 297.0785710026123 L 242.39999999999998 292.8364363114921 L 248.0 286.90510545567656 L 253.6 279.49756650224964 L 259.20000000000005 270.8810193641077 L 264.79999999999995 261.36818746753625 L 270.4 251.3071430713856 L 276.0 241.0699735568419 L 281.6 231.04065332425705 L 287.2 221.6025115351651 L 292.8 213.12569900073123 L 298.4 205.9550576225181 L 304.0 200.39878293397476 L 309.6 196.71824488423647 L 315.20000000000005 195.11929486559598 L 320.79999999999995 195.7453393052507 L 326.40000000000003 198.67240345214503 L 332.0 203.90634511184516 L 337.59999999999997 211.38230906825493 L 343.2 220.9664409974974 L 348.8 232.45980713709753 L 354.40000000000003 245.6043951529797 L 360.0 260.0910048226668 L 365.6 275.5687764720549 L 371.2 291.6560525144646 L 376.8 307.952224633685 L 382.40000000000003 324.05018750249553 L 388.0 339.5490004514057 L 393.59999999999997 354.06635182473764 L 399.20000000000005 367.25042709720185 L 404.79999999999995 378.7908009702477 L 410.40000000000003 388.4280050086767 L 416.0 395.9614649074915 L 421.59999999999997 401.2555538305567 L 427.2 404.24356875464355 L 432.8 404.9295034416581 L 438.40000000000003 403.3875624060376 L 444.0 399.7594327709481 L 449.59999999999997 394.249402886282 L 455.20000000000005 387.11748570139014 L 460.79999999999995 378.6707689257082 L 466.40000000000003 369.25327091388687 L 472.0 359.2346291509072 L 477.59999999999997 348.9979856471708 L 483.2 338.9274592813597 L 488.8 329.3956083237265 L 494.4 320.7512866107729 L 500.0 313.3082841166486 L 505.6 307.33511738610923 L 511.2 303.04629827097665 L 516.8 300.59536183636305 L 522.4000000000001 300.06987770313447 L 528.0 301.4886052877662 L 533.5999999999999 304.8008844399108 L 539.2 309.88828107734923 L 544.8000000000001 316.5684348876141 L 550.4000000000001 324.600985335819 L 556.0 333.6953853647972 L 561.5999999999999 343.5203514445108 L 567.1999999999999 353.7146459740703 L 572.8000000000001 363.898845153389 L 578.4000000000001 373.68771370049944 L 584.0 382.70278821487153 L 589.5999999999999 390.5847642058087 L 595.1999999999999 397.00528803632983 L 600.8000000000001 401.6777740769326 L 606.4 404.3668986087637 L 612.0 404.89646445851054 L 617.6 403.1553826245312 L 623.1999999999999 399.1015775862076 L 628.8000000000001 392.76368963505286 L 634.4 384.2405182859358 L 640.0 373.69822334821356" fill="none" stroke="rgb(44,160,44)" stroke-width="2.0" stroke-linecap="round" stroke-linejoin="round"/>
  <text x="660" y="80" font-family="SansSerif" font-size="12" fill="rgb(0,0,0)">Legend</text>
  <line x1="660" y1="85" x2="690" y2="85" stroke="rgb(31,119,180)" stroke-width="2.0" stroke-linecap="round"/>
  <text x="700" y="92" font-family="SansSerif" font-size="12" fill="rgb(0,0,0)">Wave 1 (A=1.61, f=1.15)</text>
  <line x1="660" y1="105" x2="690" y2="105" stroke="rgb(255,127,14)" stroke-width="2.0" stroke-linecap="round"/>
  <text x="700" y="112" font-family="SansSerif" font-size="12" fill="rgb(0,0,0)">Wave 2 (A=1.50, f=1.68)</text>
  <line x1="660" y1="125" x2="690" y2="125" stroke="rgb(44,160,44)" stroke-width="2.0" stroke-linecap="round"/>
  <text x="700" y="132" font-family="SansSerif" font-size="12" fill="rgb(0,0,0)">Wave 3 (A=0.91, f=1.20)</text>
</svg>
