<?xml version="1.0" encoding="UTF-8"?>
<svg xmlns="http://www.w3.org/2000/svg" width="800" height="600" viewBox="0 0 800 600">
  <defs>
    <clipPath id="plotClip">
      <rect x="80" y="60" width="560" height="480"/>
    </clipPath>
  </defs>
  <rect x="0" y="0" width="800" height="600" fill="rgb(255,255,255)"/>
  <rect x="80" y="60" width="560" height="480" fill="none" stroke="rgb(0,0,0)" stroke-width="1"/>
  <line x1="80.0" y1="540" x2="80.0" y2="545" stroke="rgb(0,0,0)" stroke-width="1"/>
  <text x="80.0" y="560" text-anchor="middle" font-family="SansSerif" font-size="12" fill="rgb(0,0,0)">0</text>
  <line x1="192.0" y1="540" x2="192.0" y2="545" stroke="rgb(0,0,0)" stroke-width="1"/>
  <text x="192.0" y="560" text-anchor="middle" font-family="SansSerif" font-size="12" fill="rgb(0,0,0)">2</text>
  <line x1="304.0" y1="540" x2="304.0" y2="545" stroke="rgb(0,0,0)" stroke-width="1"/>
  <text x="304.0" y="560" text-anchor="middle" font-family="SansSerif" font-size="12" fill="rgb(0,0,0)">4</text>
  <line x1="416.0" y1="540" x2="416.0" y2="545" stroke="rgb(0,0,0)" stroke-width="1"/>
  <text x="416.0" y="560" text-anchor="middle" font-family="SansSerif" font-size="12" fill="rgb(0,0,0)">6</text>
  <line x1="528.0" y1="540" x2="528.0" y2="545" stroke="rgb(0,0,0)" stroke-width="1"/>
  <text x="528.0" y="560" text-anchor="middle" font-family="SansSerif" font-size="12" fill="rgb(0,0,0)">8</text>
  <line x1="640.0" y1="540" x2="640.0" y2="545" stroke="rgb(0,0,0)" stroke-width="1"/>
  <text x="640.0" y="560" text-anchor="middle" font-family="SansSerif" font-size="12" fill="rgb(0,0,0)">10</text>
  <line x1="75" y1="306.36124392624515" x2="80" y2="306.36124392624515" stroke="rgb(0,0,0)" stroke-width="1"/>
  <text x="70" y="306.36124392624515" text-anchor="end" dominant-baseline="middle" font-family="SansSerif" font-size="12" fill="rgb(0,0,0)">0</text>
  <line x1="75" y1="60.0" x2="80" y2="60.0" stroke="rgb(0,0,0)" stroke-width="1"/>
  <text x="70" y="60.0" text-anchor="end" dominant-baseline="middle" font-family="SansSerif" font-size="12" fill="rgb(0,0,0)">1</text>
  <text x="360" y="580" text-anchor="middle" font-family="SansSerif" font-size="14" font-weight="bold" fill="rgb(0,0,0)">x</text>
  <text x="20" y="300" text-anchor="middle" font-family="SansSerif" font-size="14" font-weight="bold" fill="rgb(0,0,0)" transform="rotate(-90 20 300)">y</text>
  <text x="360" y="30" text-anchor="middle" font-family="SansSerif" font-size="16" font-weight="bold" fill="rgb(0,0,0)">Random Waves (click ▶ to regenerate)</text>
  <path d="M 80.0 483.4249818995374 L 85.6 477.23722028798613 L 91.2 469.1126004856551 L 96.8 459.1432140594582 L 102.4 447.4420627792625 L 108.0 434.14177775671504 L 113.6 419.39311608789257 L 119.19999999999999 403.363252040147 L 124.80000000000001 386.2338821523309 L 130.4 368.19916572686054 L 136.0 349.4635240578864 L 141.60000000000002 330.2393233410472 L 147.2 310.7444675287444 L 152.8 291.19992841562134 L 158.39999999999998 271.8272409504304 L 164.0 252.84599216461527 L 169.60000000000002 234.47133218029893 L 175.2 216.91153551009035 L 180.8 200.36564029108365 L 186.4 185.0211922120355 L 192.0 171.05211870603296 L 197.60000000000002 158.6167575044168 L 203.20000000000002 147.856061898056 L 208.79999999999998 138.89200304911992 L 214.4 131.8261874629457 L 220.0 126.73870529078818 L 225.6 123.68722251779872 L 231.20000000000002 122.70632732617071 L 236.79999999999998 123.80713804234568 L 242.39999999999998 126.97717711214943 L 248.0 132.18051253233511 L 253.6 139.35816513542386 L 259.20000000000005 148.42877711131928 L 264.79999999999995 159.28953418808567 L 270.4 171.81733101908497 L 276.0 185.87016656694942 L 281.6 201.28875366788884 L 287.2 217.89832453211454 L 292.8 235.51061171525714 L 298.4 253.92598210671048 L 304.0 272.93569974640343 L 309.6 292.3242918212534 L 315.20000000000005 311.87199102302134 L 320.79999999999995 331.35722658373766 L 326.40000000000003 350.5591357531294 L 332.0 369.2600672507448 L 337.59999999999997 387.2480483164717 L 343.2 404.31918739571915 L 348.8 420.2799852251279 L 354.40000000000003 434.9495281229431 L 360.0 448.16153862335716 L 365.6 459.7662602111529 L 371.2 469.632154793395 L 376.8 477.6473936675481 L 382.40000000000003 483.72112508607603 L 388.0 487.7845040498332 L 393.59999999999997 489.79147265766966 L 399.20000000000005 489.71928216707937 L 404.79999999999995 487.56875084840067 L 410.40000000000003 483.36425470982255 L 416.0 477.15345119832807 L 421.59999999999997 469.00673900838945 L 427.2 459.0164601214191 L 432.8 447.29585312075903 L 438.40000000000003 433.9777696462565 L 444.0 419.2131685372542 L 449.59999999999997 403.1694047326988 L 455.20000000000005 386.02833232347825 L 460.79999999999995 367.9842432586506 L 466.40000000000003 349.2416650700816 L 472.0 330.0130425780071 L 477.59999999999997 310.51632985510736 L 483.2 290.9725197438794 L 488.8 271.6031389299279 L 494.4 252.62773696421186 L 500.0 234.2613976958666 L 505.6 216.71230132320892 L 511.2 200.1793646967742 L 516.8 184.84998662126594 L 522.4000000000001 170.8979237131328 L 528.0 158.4813208906794 L 533.5999999999999 147.74091882085241 L 539.2 138.79845864107892 L 544.8000000000001 131.75530203843527 L 550.4000000000001 126.69128232738313 L 556.0 123.66379954896092 L 561.5999999999999 122.70716984837304 L 567.1999999999999 123.83223650570255 L 572.8000000000001 127.02624702866342 L 578.4000000000001 132.2529977005334 L 584.0 139.45324394483345 L 589.5999999999999 148.54537185532115 L 595.1999999999999 159.42632327958648 L 600.8000000000001 171.97276397054463 L 606.4 186.0424815649663 L 612.0 201.4759975431382 L 617.6 218.09837489828368 L 623.1999999999999 235.72120102603276 L 628.8000000000001 254.14472335813684 L 634.4 273.1601135332797 L 640.0 292.5518344408865" fill="none" stroke="rgb(31,119,180)" stroke-width="2.0" stroke-linecap="round" stroke-linejoin="round"/>
  <path d="M 80.0 336.9344401099245 L 85.6 350.18366947017233 L 91.2 363.288307353559 L 96.8 376.20511519166257 L 102.4 388.8914741586546 L 108.0 401.30552579151606 L 113.6 413.40631010144784 L 119.19999999999999 425.1539007207779 L 124.80000000000001 436.50953663944983 L 130.4 447.43575009643007 L 136.0 457.89649020405943 L 141.60000000000002 467.85724189744917 L 147.2 477.28513981645295 L 152.8 486.14907674445993 L 158.39999999999998 494.41980624621874 L 164.0 502.0700391660394 L 169.60000000000002 509.0745336679789 L 175.2 515.4101785209238 L 180.8 521.0560693537719 L 186.4 525.9935776291117 L 192.0 530.2064121078187 L 197.60000000000002 533.6806726017704 L 203.20000000000002 536.4048958373213 L 208.79999999999998 538.370093278213 L 214.4 539.5697807831234 L 220.0 540.0 L 225.6 539.6593314265862 L 231.20000000000002 538.5488990940496 L 236.79999999999998 536.6723668582567 L 242.39999999999998 534.0359263109323 L 248.0 530.6482763505891 L 253.6 526.5205944806349 L 259.20000000000005 521.6664999293572 L 264.79999999999995 516.1020087134707 L 270.4 509.8454807934957 L 276.0 502.91755949532615 L 281.6 495.34110339786656 L 287.2 487.141110911472 L 292.8 478.3446377960452 L 298.4 468.9807078909362 L 304.0 459.0802173511936 L 309.6 448.67583270613466 L 315.20000000000005 437.80188307659193 L 320.79999999999995 426.4942469064613 L 326.40000000000003 414.79023358227994 L 332.0 402.7284603314323 L 337.59999999999997 390.34872480514963 L 343.2 377.6918737667198 L 348.8 364.7996683181668 L 354.40000000000003 351.71464611008014 L 360.0 338.479980989237 L 365.6 325.13934054710097 L 371.2 311.7367420392177 L 376.8 298.31640715090015 L 382.40000000000003 284.92261608839783 L 388.0 271.59956147698125 L 393.59999999999997 258.3912025479953 L 399.20000000000005 245.34112009599295 L 404.79999999999995 232.49237268451787 L 410.40000000000003 219.88735457497728 L 416.0 207.56765584737502 L 421.59999999999997 195.5739251744261 L 427.2 183.9457357018327 L 432.8 172.72145447724716 L 438.40000000000003 161.9381158587359 L 444.0 151.6312993204383 L 449.59999999999997 141.83501205859028 L 455.20000000000005 132.5815767852593 L 460.79999999999995 123.90152508001 L 466.40000000000003 115.82349665138668 L 472.0 108.37414484059832 L 477.59999999999997 101.57804867919361 L 483.2 95.45763179089181 L 488.8 90.03308840515211 L 494.4 85.32231672659702 L 500.0 81.34085988013805 L 505.6 78.10185462665385 L 511.2 75.61598801843206 L 516.8 73.89146213739087 L 522.4000000000001 72.9339670324249 L 528.0 72.74666194516885 L 533.5999999999999 73.33016488612441 L 539.2 74.68255059554275 L 544.8000000000001 76.79935689579281 L 550.4000000000001 79.6735994142528 L 556.0 83.29579462815008 L 561.5999999999999 87.65399115531085 L 567.1999999999999 92.73380918757783 L 572.8000000000001 98.51848793678471 L 578.4000000000001 104.9889409367413 L 584.0 112.12381901876012 L 589.5999999999999 119.89958075293879 L 595.1999999999999 128.2905701227765 L 600.8000000000001 137.26910117683946 L 606.4 146.8055493781689 L 612.0 156.8684493500237 L 617.6 167.4245986954491 L 623.1999999999999 178.4391675481183 L 628.8000000000001 189.8758134929859 L 634.4 201.69680147757646 L 640.0 213.86312831825876" fill="none" stroke="rgb(255,127,14)" stroke-width="2.0" stroke-linecap="round" stroke-linejoin="round"/>
  <path d="M 80.0 306.36124392624515 L 85.6 293.5157339938095 L 91.2 280.93803247730267 L 96.8 268.8889928649548 L 102.4 257.6157446783973 L 108.0 247.34529122673172 L 113.6 238.27864522218852 L 119.19999999999999 230.58565890337104 L 124.80000000000001 224.40068668925494 L 130.4 219.819196063652 L 136.0 216.89541696456018 L 141.60000000000002 215.64109210774473 L 147.2 216.0253611559591 L 152.8 217.97578124621612 L 158.39999999999998 221.3804559229069 L 164.0 226.09121481151732 L 169.60000000000002 231.92775820323067 L 175.2 238.6826548603173 L 180.8 246.12705848954187 L 186.4 254.01698907911924 L 192.0 262.1000101703833 L 197.60000000000002 270.1221225439363 L 203.20000000000002 277.83468902566426 L 208.79999999999998 285.00120431544394 L 214.4 291.4037279320595 L 220.0 296.84880743927914 L 225.6 301.17273282675313 L 231.20000000000002 304.2459808975364 L 236.79999999999998 305.9767302792144 L 242.39999999999998 306.31335264384006 L 248.0 305.24581322326424 L 253.6 302.8059430030904 L 259.20000000000005 299.0665752843857 L 264.79999999999995 294.13956980433056 L 270.4 288.1727774868224 L 276.0 281.3460273500005 L 281.6 273.8662433662454 L 287.2 265.96182244664254 L 292.8 257.8764245789736 L 298.4 249.86234195321032 L 304.0 242.17362523715758 L 309.6 235.05915171330219 L 315.20000000000005 228.755821580313 L 320.79999999999995 223.48206531618814 L 326.40000000000003 219.43183668604092 L 332.0 216.76925297890165 L 337.59999999999997 215.62402672330398 L 343.2 216.08781192575015 L 348.8 218.21156336821002 L 354.40000000000003 222.00398034796592 L 360.0 227.43107717371709 L 365.6 234.41689252565072 L 371.2 242.84531925442582 L 376.8 252.56300615372425 L 382.40000000000003 263.3832544990188 L 388.0 275.09080547246475 L 393.59999999999997 287.44739070585683 L 399.20000000000005 300.1978977111657 L 404.79999999999995 313.0769854801969 L 410.40000000000003 325.81597346368346 L 416.0 338.1498198094322 L 421.59999999999997 349.8240023456532 L 427.2 360.6011184035008 L 432.8 370.26702711219946 L 438.40000000000003 378.6363700686685 L 444.0 385.5573229521982 L 449.59999999999997 390.9154512763291 L 455.20000000000005 394.63656749148413 L 460.79999999999995 396.6885134287163 L 466.40000000000003 397.08182088890646 L 472.0 395.86923325992916 L 477.59999999999997 393.1441015798903 L 483.2 389.0376986384173 L 488.8 383.7155237107737 L 494.4 377.3726975733016 L 500.0 370.2285718276968 L 505.6 362.52069761197004 L 511.2 354.4983159330281 L 516.8 346.41554465944057 L 522.4000000000001 338.5244453197656 L 528.0 331.06815604440135 L 533.5999999999999 324.2742751817619 L 539.2 318.34867336122875 L 544.8000000000001 313.46990024718906 L 550.4000000000001 309.78433623991947 L 556.0 307.4022193591006 L 561.5999999999999 306.39465403154304 L 567.1999999999999 306.7916821271529 L 572.8000000000001 308.58146805399656 L 578.4000000000001 311.71061980007585 L 584.0 316.08563729894047 L 589.5999999999999 321.5754492171259 L 595.1999999999999 328.01497002600115 L 600.8000000000001 335.209581813328 L 606.4 342.9404204459985 L 612.0 350.9703240816327 L 617.6 359.0502842228658 L 623.1999999999999 366.9262259919867 L 628.8000000000001 374.34593543777885 L 634.4 381.0659477088888 L 640.0 386.8582109456349" fill="none" stroke="rgb(44,160,44)" stroke-width="2.0" stroke-linecap="round" stroke-linejoin="round"/>
  <text x="660" y="80" font-family="SansSerif" font-size="12" fill="rgb(0,0,0)">Legend</text>
  <line x1="660" y1="85" x2="690" y2="85" stroke="rgb(31,119,180)" stroke-width="2.0" stroke-linecap="round"/>
  <text x="700" y="92" font-family="SansSerif" font-size="12" fill="rgb(0,0,0)">Wave 1 (A=0.75, f=1.07)</text>
  <line x1="660" y1="105" x2="690" y2="105" stroke="rgb(255,127,14)" stroke-width="2.0" stroke-linecap="round"/>
  <text x="700" y="112" font-family="SansSerif" font-size="12" fill="rgb(0,0,0)">Wave 2 (A=0.95, f=0.57)</text>
  <line x1="660" y1="125" x2="690" y2="125" stroke="rgb(44,160,44)" stroke-width="2.0" stroke-linecap="round"/>
  <text x="700" y="132" font-family="SansSerif" font-size="12" fill="rgb(0,0,0)">Wave 3 (A=0.48, f=1.09)</text>
</svg>
